<svg width="48" height="48" viewBox="0 0 48 48" fill="none" xmlns="http://www.w3.org/2000/svg">
<g clip-path="url(#clip0_18_626)">
    <mask id="mask0_18_626" style="mask-type:alpha" maskUnits="userSpaceOnUse" x="0" y="0" width="48" height="48">
        <path d="M48 0H0V48H48V0Z" fill="white"/>
    </mask>
    <g mask="url(#mask0_18_626)">
        <path d="M44 0H4C1.79086 0 0 1.79086 0 4V44C0 46.2091 1.79086 48 4 48H44C46.2091 48 48 46.2091 48 44V4C48 1.79086 46.2091 0 44 0Z" fill="#22683E"/>
        <path d="M20.352 24.0001H34.512C34.944 24.0001 35.328 23.7121 35.424 23.2801L38.016 14.1601C38.208 13.5361 37.728 12.9601 37.104 12.9601H15.216L14.832 11.6161C14.64 10.9921 14.064 10.5601 13.44 10.5601H11.136C10.368 10.5601 9.64799 11.1361 9.59999 11.9041C9.55199 12.7201 10.224 13.4401 11.04 13.4401H12.384L16.896 28.7041C17.088 29.3281 17.616 29.7601 18.288 29.7601H34.992C35.76 29.7601 36.48 29.1841 36.528 28.4161C36.576 27.6001 35.904 26.8801 35.088 26.8801H20.4C19.776 26.8801 19.2 26.4481 19.056 25.8721V25.8241C18.72 24.9121 19.44 24.0001 20.352 24.0001Z" fill="white"/>
        <path d="M20.64 37.4401C21.9655 37.4401 23.04 36.3655 23.04 35.0401C23.04 33.7146 21.9655 32.6401 20.64 32.6401C19.3145 32.6401 18.24 33.7146 18.24 35.0401C18.24 36.3655 19.3145 37.4401 20.64 37.4401Z" fill="white"/>
        <path d="M32.16 37.4401C33.4855 37.4401 34.56 36.3655 34.56 35.0401C34.56 33.7146 33.4855 32.6401 32.16 32.6401C30.8345 32.6401 29.76 33.7146 29.76 35.0401C29.76 36.3655 30.8345 37.4401 32.16 37.4401Z" fill="white"/>
    </g>
</g>
<defs>
    <clipPath id="clip0_18_626">
        <rect width="48" height="48" fill="white"/>
    </clipPath>
</defs>
</svg>
