<svg width="48" height="48" viewBox="0 0 48 48" fill="none" xmlns="http://www.w3.org/2000/svg">
    <rect width="48" height="48" rx="4" fill="#22683E"/>
    <path
        d="M16 37H12.6979V20.1389C12.6979 19.6094 12.6979 19.0431 12.6979 18.4398C12.7104 17.8365 12.723 17.2394 12.7355 16.6484C12.7605 16.0451 12.7792 15.4726 12.7917 14.9309C12.8168 14.3769 12.8355 13.8906 12.848 13.472C12.6354 13.6936 12.4478 13.8844 12.2852 14.0445C12.1226 14.2045 11.9537 14.3584 11.7786 14.5062C11.616 14.6539 11.4409 14.814 11.2533 14.9863C11.0657 15.1464 10.8405 15.3372 10.5779 15.5588L7.80113 17.7934L6 15.5219L13.1857 10H16V37Z"
        fill="white"/>
    <path d="M30.7013 21.3651H24V18.754H30.7013V12H33.2987V18.754H40V21.3651H33.2987V28.0843H30.7013V21.3651Z"
          fill="white"/>
    <path d="M40.2473 36H23.5287V33.563H40.2473V36Z" fill="white"/>
</svg>
